<mxfile host="app.diagrams.net" modified="2024-06-30T09:12:15.082Z" agent="Mozilla/5.0 (Windows NT 10.0; Win64; x64) AppleWebKit/537.36 (KHTML, like Gecko) Chrome/126.0.0.0 Safari/537.36" version="24.6.4" etag="WrIxjoih94Mpa3EH_Y0u" type="github">
  <diagram name="Page-1" id="ad7daLtSkhIMNCa_W-CP">
    <mxGraphModel>
      <root>
        <mxCell id="0" />
        <mxCell id="1" parent="0" />
      </root>
    </mxGraphModel>
  </diagram>
</mxfile>
